<?xml version="1.0" standalone="no"?>
<!DOCTYPE svg PUBLIC "-//W3C//DTD SVG 20010904//EN"
 "http://www.w3.org/TR/2001/REC-SVG-20010904/DTD/svg10.dtd">
<svg version="1.0" xmlns="http://www.w3.org/2000/svg"
 width="266.000000pt" height="270.000000pt" viewBox="0 0 266.000000 270.000000"
 preserveAspectRatio="xMidYMid meet">
<metadata>
Created by potrace 1.16, written by Peter Selinger 2001-2019
</metadata>
<g transform="translate(0.000000,270.000000) scale(0.100000,-0.100000)"
fill="#000000" stroke="none">
<path d="M590 1004 c-102 -279 -186 -513 -188 -520 -3 -12 41 -14 275 -12
l278 3 35 118 34 117 286 -2 285 -3 34 -117 35 -118 288 0 c158 0 288 1 288 3
0 6 -219 599 -222 603 -2 2 -135 48 -296 103 -181 62 -292 96 -292 88 0 -7 11
-48 25 -92 14 -44 25 -83 25 -87 0 -5 -76 -8 -170 -8 -93 0 -170 4 -170 9 0 5
16 60 35 124 19 63 35 121 35 129 0 8 -75 39 -203 82 -111 38 -206 73 -211 78
-6 4 -12 8 -15 8 -4 0 -89 -228 -191 -506z"/>
</g>
</svg>
