<?xml version="1.0" standalone="no"?>
<!DOCTYPE svg PUBLIC "-//W3C//DTD SVG 20010904//EN"
 "http://www.w3.org/TR/2001/REC-SVG-20010904/DTD/svg10.dtd">
<svg version="1.0" xmlns="http://www.w3.org/2000/svg"
 width="3464.000000pt" height="1987.000000pt" viewBox="0 0 3464.000000 1987.000000"
 preserveAspectRatio="xMidYMid meet">
<metadata>
Created by potrace 1.16, written by Peter Selinger 2001-2019
</metadata>
<g transform="translate(0.000000,1987.000000) scale(0.100000,-0.100000)"
fill="#000000" stroke="none">
<path d="M25832 10143 l-2 -23 -355 0 -355 0 0 -112 c0 -62 -5 -142 -11 -178
-21 -135 -92 -236 -202 -286 -57 -27 -71 -29 -177 -29 -107 0 -119 2 -174 29
-100 49 -162 126 -192 241 -9 31 -14 110 -15 205 0 85 -3 149 -6 143 -4 -10
-85 -13 -360 -13 l-356 0 6 -202 c7 -270 37 -390 136 -541 132 -200 347 -326
652 -384 72 -13 146 -17 314 -17 168 0 242 4 314 17 410 77 657 281 751 618
25 90 42 297 38 444 -2 61 -5 100 -6 88z"/>
<path d="M8911 9578 l-1 -568 330 0 330 0 2 527 3 528 455 -527 455 -527 318
-1 317 0 0 555 0 555 -1099 0 c-870 0 -1100 3 -1104 13 -3 6 -6 -243 -6 -555z"/>
<path d="M11611 9578 l-1 -568 360 0 360 0 0 555 0 555 -354 0 c-274 0 -355 3
-359 13 -3 6 -6 -243 -6 -555z"/>
<path d="M14655 10130 c-4 -6 -96 -10 -245 -10 l-238 0 -17 -72 c-10 -40 -21
-79 -24 -85 -4 -7 -17 27 -29 75 l-23 87 -294 0 c-289 0 -294 0 -289 -20 3
-11 71 -261 152 -555 l148 -535 284 0 284 0 143 525 c79 289 147 542 152 563
9 37 8 46 -4 27z"/>
<path d="M21125 10130 c-4 -7 -330 -10 -945 -10 l-939 0 2 -552 2 -553 358 -3
357 -2 0 354 0 355 333 3 c309 4 337 6 407 27 184 55 327 172 411 334 16 31
27 57 25 57 -3 0 -8 -4 -11 -10z"/>
<path d="M7907 10122 c-316 -2 -338 -3 -333 -20 3 -9 22 -74 42 -144 21 -71
35 -130 32 -133 -3 -3 -106 -4 -230 -3 l-225 3 43 145 c24 80 44 146 44 148 0
1 -150 2 -332 2 l-333 0 -170 -467 c-93 -257 -184 -507 -202 -555 l-32 -88
369 0 369 0 25 83 c13 45 34 115 46 155 l22 72 382 0 383 0 45 -152 45 -153
382 -3 c209 -1 381 -1 381 1 0 11 -403 1103 -408 1107 -4 3 -159 4 -345 2z"/>
<path d="M13103 10122 l-323 -2 0 -555 0 -555 330 0 330 0 -1 498 c-1 273 -4
524 -8 557 l-6 60 -322 -3z"/>
<path d="M15079 10123 l-346 -3 -6 -128 c-4 -70 -7 -319 -7 -554 l0 -428 355
0 355 0 0 560 c0 308 -1 559 -2 558 -2 -2 -159 -4 -349 -5z"/>
<path d="M16728 10123 l-868 -3 0 -555 0 -555 970 0 970 0 0 270 0 270 -615 0
-615 0 0 160 0 160 515 0 515 0 0 130 c0 72 -1 129 -2 128 -2 -2 -393 -4 -870
-5z"/>
<path d="M21570 9568 l0 -558 925 0 925 0 0 285 0 285 -565 0 -565 0 0 270 0
270 -360 2 -360 3 0 -557z"/>
<path d="M27265 10120 l-859 -5 44 -36 c130 -106 310 -173 668 -249 95 -20
105 -21 121 -6 16 14 73 16 521 16 l503 0 -7 43 c-8 52 -66 171 -103 212 l-28
30 -860 -5z"/>
<path d="M26200 9709 c0 -68 34 -234 61 -295 83 -187 258 -326 487 -385 152
-39 463 -72 476 -51 3 6 3 123 -1 261 l-6 251 -57 0 c-158 0 -260 81 -277 219
l-6 51 -338 0 -339 0 0 -51z"/>
<path d="M27478 9720 c39 -24 66 -80 57 -120 -11 -51 -78 -94 -163 -106 l-52
-7 0 -258 0 -259 29 0 c66 0 242 22 321 41 363 84 571 310 597 649 l6 80 -414
0 -414 0 33 -20z"/>
</g>
</svg>
